Patient4_TMGait_0pt5_01_left_14_EMG.mot
version=1
nRows=26
nColumns=33
inDegrees=no
endheader
time	1LAddLong	2LGlutMax	3LGlutMed	4LIliopsoas	5LSemiMemb	6LBicFemLong	7LRecFem	8LVastMed	9LVastLat	10LGasMed	11LTibAnt	12lTibPost	13LPeroneusLong	14LSol	15LExtDigLong	16LFlexDigLong	17RAddLong	18RGlutMax	19RGlutMed	20RIliopsoas	21RSemiMemb	22RBicFemLong	23RRecFem	24RVastMed	25RVastLat	26RGasMed	27RTibAnt	28RTibPost	29RPeroneusLong	30RSol	31RExtDigLong	32RFlexDigLong
18.68	0.010529	0.10803	-0.096893	0.002441	-0.018616	0.012207	0.10986	0.008392	-0.091705	-0.068054	-0.022583	0.002136	0.046692	-0.065002	-0.02243	-0.001373	0.045776	-0.2243	0.57892	0.041962	-0.02182	-0.022583	0.13473	-0.16815	0.032349	-0.025482	0.000763	-0.000763	-1.3753	0.34821	-0.003662	0.010376
18.681	0.004578	0.093689	-0.11566	0.024261	-0.01236	0.012054	0.10925	-0.003357	-0.057678	-0.036774	0.027618	-0.001221	0.032501	-0.029449	-0.034637	0.012665	0.033264	-0.17136	0.46951	0.051117	-0.16113	0.006866	0.059967	-0.13794	0.27573	-0.032806	-0.103	-0.001526	-1.1862	0.17197	-0.005188	0.001221
18.682	0.004883	0.12482	-0.11383	0.019073	-0.005493	0.026093	0.089111	0.000305	-0.036163	-0.022736	0.017853	0.005341	0.037842	-0.037537	-0.057068	0.005646	0.003967	-0.17014	0.36362	0.026398	0.17487	-0.11292	-0.053253	-0.032501	0.5307	-0.033264	-0.13657	-0.007477	0.74295	0.048981	-0.004272	0.001221
18.683	0.006561	0.12817	-0.068359	0.008392	0.008087	0.054016	0.11475	0.001373	-0.005951	-0.037231	0.027161	-0.000763	0.049438	-0.072479	-0.070801	0.006409	-0.025787	-0.18143	0.24719	-0.036163	0.090942	-0.033722	-0.071564	0.002899	0.47119	-0.036469	-0.068665	-0.007782	1.5598	0.050049	-0.00885	-0.005341
18.684	0.001526	0.15182	-0.04364	0.0177	0.011597	0.041809	0.095062	0.002899	0.033875	-0.082855	0.001068	0.003204	0.054016	-0.095367	-0.053864	-0.003204	-0.047607	-0.16464	0.39185	-0.019989	-0.11536	0.0354	-0.000763	0.01709	0.37994	-0.022583	0.065613	-0.010681	0.68268	0.15991	-0.009155	-0.009766
18.685	0.00885	0.14526	-0.055237	-0.003357	-0.00824	0.013275	0.092773	0.00824	0.072479	-0.028687	-0.056152	0.005646	0.057373	-0.071716	-0.043488	0.009918	-0.022278	-0.1651	0.27786	0.003052	0.074158	0.087585	0.052795	0.03891	0.30273	0.011444	0.12268	-0.003815	-0.12253	0.14023	-0.006714	-0.002747
18.686	0.003357	0.14771	-0.066223	0.009766	-0.039215	-0.021973	0.088959	0.001221	0.086365	0.002289	-0.027313	-0.005341	0.054169	-0.042877	-0.011292	0.007935	-0.021362	-0.21988	0.015411	0.015869	0.052948	0.26306	-0.01297	0.082703	0.23285	0.009918	0.091248	-0.00351	-0.42938	0.075226	-0.003357	-0.007629
18.687	0.007324	0.14786	-0.103	0.014496	-0.032654	-0.044556	0.070038	0.006714	0.09903	0.017548	-0.024719	0.002594	0.055695	0.006256	0.046387	0.009003	-0.020905	-0.21652	0.22049	-0.058594	-0.072937	0.34653	0.063477	0.14908	-0.085144	0.019989	0.054474	-0.002747	-0.016937	0.11215	-0.004578	-0.014191
18.688	0.010223	0.16525	-0.081329	0.016479	-0.013123	-0.032196	0.077209	0.001984	0.10803	0.038147	-0.018463	0.000153	0.06073	0.005493	0.052643	0.021515	-0.007477	-0.17502	0.51758	-0.073547	-0.11307	0.23605	0.076904	0.059204	-0.33341	0.003662	0.093079	-0.004578	0.16678	0.067444	-0.003662	-0.016632
18.689	-0.00351	0.15305	-0.065002	0.007019	-0.007782	-0.036316	0.075989	0.007935	0.13138	0.041504	0.00061	0.006256	0.058899	-0.022888	0.05188	0.012665	0.01358	-0.24689	-0.072937	-0.020142	-0.12833	0.13077	0.14114	-0.00412	-0.45166	-0.027771	0.14587	-0.011749	-0.14069	0.023499	-0.004883	-0.007324
18.69	0.001831	0.18936	-0.054932	0.008087	-0.01236	-0.021057	0.058594	0.009766	0.13779	0.016327	0.025177	0.001526	0.06485	-0.049896	0.020447	0.008392	-0.010834	-0.22797	-0.16892	-0.039368	-0.1619	0.15961	0.27969	-0.00412	-0.34805	-0.023041	0.18784	-0.012512	-0.35172	0.034943	-0.002441	-0.012207
18.691	0.015869	0.19714	-0.07782	0.005646	-0.004883	-0.036621	0.058136	-0.000458	0.14954	-0.014648	0.035095	0.004272	0.072784	-0.046692	-0.061035	-0.009308	-0.011139	-0.22934	-0.051422	0.019073	0.11566	0.16266	0.29312	-0.001526	-0.10849	-0.015564	0.19684	-0.011139	-0.39154	0.14343	-0.005798	-0.007019
18.692	0.002747	0.20584	-0.074158	0.005951	-0.007019	-0.020294	0.067596	0.008087	0.16174	-0.021667	0.050201	0.000153	0.045929	-0.10605	-0.054626	-0.00946	-0.002899	-0.18143	0.44434	-0.069275	0.1738	0.13473	0.34714	-0.041656	-0.084686	0.012512	0.11856	0.001678	-0.29373	0.26977	-0.004883	0.001831
18.693	0.006409	0.21027	-0.097351	0.017548	-0.010223	0.001678	0.057373	0.004578	0.18982	-0.008545	0.064545	0.005493	0.040741	-0.089264	-0.080261	-0.001221	0.00351	-0.12756	0.37674	-0.002899	0.11551	0.15076	0.46051	-0.072784	-0.11719	0.00824	0.050812	-0.002747	-0.022278	0.19562	-0.004272	-0.002594
18.694	0.00351	0.21561	-0.12024	0.014496	-0.009003	-0.010223	0.053101	0.002747	0.21179	0.001984	0.16113	-0.001068	0.034637	-0.069275	-0.055542	-0.005951	-0.002899	-0.18433	0.18997	0.10971	-0.045776	0.36636	0.42694	-0.000458	-0.05722	0.012817	0.077972	-0.00824	0.17197	0.07309	-0.005798	-0.001526
18.695	0.007172	0.22659	-0.1413	0.000305	-0.020905	-0.028381	0.071564	0.006714	0.22186	0.009918	0.17731	0.002136	0.004578	-0.010986	0.35767	-0.001221	-0.006561	-0.1622	0.38544	0.039063	-0.067444	0.26459	0.27557	0.004272	-0.023193	-0.024109	0.069733	-0.020142	0.33844	-0.041504	-0.005035	-0.000458
18.696	0.006866	0.23575	-0.13733	0.003662	-0.011902	-0.023651	0.048065	0.006561	0.23621	0.014343	0.13565	0.002441	0.008698	0.063629	0.064392	0.004578	0.001831	-0.12558	0.35614	-0.00061	-0.02243	0.10117	0.11032	-0.019226	-0.12528	-0.021667	0.14023	0.00061	0.34363	-0.018768	-0.005798	-0.00061
18.697	0.005493	0.23651	-0.065308	0.002899	-0.014038	-0.032959	0.044403	0.002594	0.23758	-0.054016	-0.19623	0.003204	0.031891	0.0914	0.054474	-0.00061	-0.004272	-0.1088	0.41077	-0.059052	-0.007782	0.066528	-0.1004	-0.12039	-0.25101	0.012207	0.055847	0.037689	0.65674	-0.074463	-0.005188	0.001068
18.698	0.00473	0.26703	-0.012665	-0.00412	-0.016632	-0.014191	0.055695	-0.004883	0.24994	-0.061951	-0.17105	0.00473	0.038757	-0.00946	-0.06073	0	-0.002899	-0.012054	0.54886	-0.12207	0.013275	0.082092	-0.1384	-0.20828	-0.16922	0.028076	-0.31006	0.006256	1.1504	-0.2002	-0.014343	0.011749
18.699	-0.000763	0.24628	-0.031433	0.028687	-0.024109	-0.034027	0.063782	0.044098	0.25375	-0.054016	-0.10239	0.007324	0.007935	-0.03952	-0.16815	-0.005188	0.014496	0.009613	0.61737	-0.067444	-0.00061	0.090942	-0.072937	-0.17136	-0.14435	0.0177	-0.35034	-0.014343	0.14145	-0.13382	-0.006104	-0.00824
18.7	0.005341	0.21027	-0.083923	0.002899	-0.023193	-0.044708	0.062256	-0.021362	0.23163	-0.041504	-0.094299	0.004425	0.006866	-0.10269	-0.20432	-0.000916	0.001831	-0.058289	0.61874	-0.02533	0.013885	0.13748	-0.16953	0.000763	-0.15549	-0.041351	-0.20035	-0.021362	-0.57968	-0.03418	-0.003967	-0.009155
18.701	0.010834	0.20401	-0.068665	-0.003357	-0.000153	-0.067139	0.059052	-0.015106	0.24674	-0.051575	-0.093231	0.00061	0.047455	-0.16937	-0.18021	0.00061	-0.00824	-0.093079	0.33432	-0.002747	0.018921	0.13886	-0.23285	0.084839	0.007324	-0.013275	0.22812	-0.002594	-1.3339	0.021057	-0.007324	-0.011139
18.702	0.014038	0.19852	-0.063324	-0.001221	0.020599	-0.071259	0.029602	0.003052	0.25055	-0.037384	-0.06134	0.004883	0.07782	-0.21774	-0.094147	0.000916	-0.00061	-0.083618	0.13397	0.059814	0.0177	0.09491	-0.26749	0.103	0.29541	0.023804	0.39978	0.01236	-0.48035	-0.071106	-0.00351	-0.01236
18.703	0.008698	0.224	-0.085602	0	0.015564	-0.070038	0.032196	-0.001221	0.2533	-0.000916	0.072937	0.001831	0.076294	-0.24811	0.069885	-0.008392	0.014038	0.010376	0.32242	0.06485	0.000153	0.021362	-0.1152	0.015411	0.1799	0.023499	0.049286	0.001678	0.68924	-0.25909	-0.003052	-0.011139
18.704	0.008545	0.20523	-0.07782	0.006561	0.023193	-0.07309	0.041199	-0.008087	0.23666	0.001984	0.056915	0.00351	0.10666	-0.31097	0.068665	-0.003967	0.027161	0.016785	0.39551	0.054626	0.001373	0.030365	0.048676	-0.061798	0.072784	0.023499	-0.19989	-0.001526	0.97733	-0.25635	-0.004272	-0.010986
18.705	0.011139	0.20508	-0.061646	-0.001221	0.00061	-0.047455	0.047302	0.002899	0.22858	-0.016022	0.033722	0.003967	0.083466	-0.22385	0.0914	-0.008087	0.013885	-0.061035	-0.00885	0.072021	0.033722	0.043945	-0.018005	-0.16541	0.046387	0.019226	0.069733	-0.011902	0.12543	-0.24155	-0.001984	-0.015411
